<mxfile host="65bd71144e">
    <diagram id="HkoN10MVfY5_M1-_J-7j" name="Страница 1">
        <mxGraphModel dx="674" dy="530" grid="1" gridSize="10" guides="1" tooltips="1" connect="1" arrows="1" fold="1" page="1" pageScale="1" pageWidth="827" pageHeight="1169" math="0" shadow="0">
            <root>
                <mxCell id="0"/>
                <mxCell id="1" parent="0"/>
                <mxCell id="70" value="" style="edgeStyle=none;html=1;" edge="1" parent="1" source="68" target="69">
                    <mxGeometry relative="1" as="geometry"/>
                </mxCell>
                <mxCell id="68" value="Start" style="ellipse;whiteSpace=wrap;html=1;" vertex="1" parent="1">
                    <mxGeometry x="92" y="20" width="146" height="60" as="geometry"/>
                </mxCell>
                <mxCell id="69" value="&lt;div&gt;&lt;span style=&quot;font-size: 14px ; color: rgb(212 , 212 , 212) ; font-family: &amp;#34;consolas&amp;#34; , &amp;#34;courier new&amp;#34; , monospace&quot;&gt;inputarray[] = {примеру задания}&lt;/span&gt;&lt;/div&gt;&lt;div&gt;&lt;span style=&quot;font-size: 14px ; color: rgb(212 , 212 , 212) ; font-family: &amp;#34;consolas&amp;#34; , &amp;#34;courier new&amp;#34; , monospace&quot;&gt;outpputarray[] = inputarray.Length&lt;/span&gt;&lt;/div&gt;" style="whiteSpace=wrap;html=1;align=center;" vertex="1" parent="1">
                    <mxGeometry x="30" y="110" width="270" height="50" as="geometry"/>
                </mxCell>
                <mxCell id="73" value="" style="edgeStyle=none;html=1;fontSize=14;" edge="1" parent="1" source="71" target="72">
                    <mxGeometry relative="1" as="geometry"/>
                </mxCell>
                <mxCell id="71" value="метод&lt;br&gt;CharacterLenght" style="ellipse;whiteSpace=wrap;html=1;fontSize=14;" vertex="1" parent="1">
                    <mxGeometry x="585" y="20" width="160" height="60" as="geometry"/>
                </mxCell>
                <mxCell id="75" value="" style="edgeStyle=none;html=1;fontSize=14;" edge="1" parent="1" source="72" target="74">
                    <mxGeometry relative="1" as="geometry"/>
                </mxCell>
                <mxCell id="72" value="&lt;div style=&quot;font-size: 12px&quot;&gt;&lt;span style=&quot;font-size: 14px ; color: rgb(212 , 212 , 212) ; font-family: &amp;#34;consolas&amp;#34; , &amp;#34;courier new&amp;#34; , monospace&quot;&gt;array1 = inputarray[]&amp;nbsp;&lt;/span&gt;&lt;/div&gt;&lt;div style=&quot;font-size: 12px&quot;&gt;&lt;span style=&quot;font-size: 14px ; color: rgb(212 , 212 , 212) ; font-family: &amp;#34;consolas&amp;#34; , &amp;#34;courier new&amp;#34; , monospace&quot;&gt;&amp;nbsp;= inputarray.Length&lt;/span&gt;&lt;/div&gt;&lt;div style=&quot;font-size: 12px&quot;&gt;&lt;font color=&quot;#d4d4d4&quot; face=&quot;consolas, courier new, monospace&quot;&gt;&lt;span style=&quot;font-size: 14px&quot;&gt;i = 0&lt;/span&gt;&lt;/font&gt;&lt;/div&gt;&lt;div style=&quot;font-size: 12px&quot;&gt;&lt;font color=&quot;#d4d4d4&quot; face=&quot;consolas, courier new, monospace&quot;&gt;&lt;span style=&quot;font-size: 14px&quot;&gt;index = 0&lt;/span&gt;&lt;/font&gt;&lt;/div&gt;&lt;div style=&quot;font-size: 12px&quot;&gt;&lt;font color=&quot;#d4d4d4&quot; face=&quot;consolas, courier new, monospace&quot;&gt;&lt;span style=&quot;font-size: 14px&quot;&gt;count = 0&lt;/span&gt;&lt;/font&gt;&lt;/div&gt;" style="whiteSpace=wrap;html=1;fontSize=14;" vertex="1" parent="1">
                    <mxGeometry x="570" y="100" width="190" height="100" as="geometry"/>
                </mxCell>
                <mxCell id="77" value="" style="edgeStyle=none;html=1;fontSize=14;" edge="1" parent="1" source="74" target="76">
                    <mxGeometry relative="1" as="geometry"/>
                </mxCell>
                <mxCell id="91" value="" style="edgeStyle=none;html=1;fontSize=14;" edge="1" parent="1" source="74" target="90">
                    <mxGeometry relative="1" as="geometry">
                        <Array as="points">
                            <mxPoint x="810" y="250"/>
                            <mxPoint x="810" y="545"/>
                        </Array>
                    </mxGeometry>
                </mxCell>
                <mxCell id="74" value="i &amp;lt; count" style="rhombus;whiteSpace=wrap;html=1;fontSize=14;" vertex="1" parent="1">
                    <mxGeometry x="610" y="220" width="110" height="60" as="geometry"/>
                </mxCell>
                <mxCell id="81" value="" style="edgeStyle=none;html=1;fontSize=14;" edge="1" parent="1" source="76" target="80">
                    <mxGeometry relative="1" as="geometry"/>
                </mxCell>
                <mxCell id="84" style="edgeStyle=none;html=1;exitX=1;exitY=0.5;exitDx=0;exitDy=0;entryX=0.996;entryY=0.642;entryDx=0;entryDy=0;entryPerimeter=0;fontSize=14;startArrow=none;" edge="1" parent="1" source="76" target="82">
                    <mxGeometry relative="1" as="geometry">
                        <Array as="points">
                            <mxPoint x="790" y="335"/>
                            <mxPoint x="790" y="499"/>
                        </Array>
                    </mxGeometry>
                </mxCell>
                <mxCell id="76" value="&lt;span style=&quot;color: rgb(212 , 212 , 212) ; font-family: &amp;#34;consolas&amp;#34; , &amp;#34;courier new&amp;#34; , monospace&quot;&gt;array1[i].Length &amp;lt;=3&lt;/span&gt;" style="rhombus;whiteSpace=wrap;html=1;fontSize=14;" vertex="1" parent="1">
                    <mxGeometry x="575" y="300" width="180" height="70" as="geometry"/>
                </mxCell>
                <mxCell id="83" value="" style="edgeStyle=none;html=1;fontSize=14;" edge="1" parent="1" source="80" target="82">
                    <mxGeometry relative="1" as="geometry"/>
                </mxCell>
                <mxCell id="80" value="&lt;span style=&quot;color: rgb(212 , 212 , 212) ; font-family: &amp;#34;consolas&amp;#34; , &amp;#34;courier new&amp;#34; , monospace&quot;&gt;array2[count] =&amp;nbsp;&lt;/span&gt;&lt;span style=&quot;color: rgb(212 , 212 , 212) ; font-family: &amp;#34;consolas&amp;#34; , &amp;#34;courier new&amp;#34; , monospace&quot;&gt;array1[i]&lt;br&gt;count = count + 1&lt;br&gt;&lt;/span&gt;" style="whiteSpace=wrap;html=1;fontSize=14;" vertex="1" parent="1">
                    <mxGeometry x="560" y="390" width="210" height="60" as="geometry"/>
                </mxCell>
                <mxCell id="89" style="edgeStyle=none;html=1;fontSize=14;entryX=0;entryY=0.5;entryDx=0;entryDy=0;" edge="1" parent="1" source="82" target="74">
                    <mxGeometry relative="1" as="geometry">
                        <mxPoint x="570" y="330" as="targetPoint"/>
                        <Array as="points">
                            <mxPoint x="530" y="490"/>
                            <mxPoint x="520" y="485"/>
                            <mxPoint x="520" y="330"/>
                            <mxPoint x="520" y="250"/>
                        </Array>
                    </mxGeometry>
                </mxCell>
                <mxCell id="82" value="i = i +1" style="whiteSpace=wrap;html=1;fontSize=14;" vertex="1" parent="1">
                    <mxGeometry x="602.5" y="480" width="125" height="30" as="geometry"/>
                </mxCell>
                <mxCell id="85" value="" style="edgeStyle=none;html=1;exitX=1;exitY=0.5;exitDx=0;exitDy=0;fontSize=14;endArrow=none;" edge="1" parent="1" source="76">
                    <mxGeometry relative="1" as="geometry">
                        <mxPoint x="755" y="335" as="sourcePoint"/>
                        <mxPoint x="755" y="335" as="targetPoint"/>
                        <Array as="points"/>
                    </mxGeometry>
                </mxCell>
                <mxCell id="86" value="&lt;font style=&quot;font-size: 12px&quot;&gt;TRUE&lt;/font&gt;" style="text;html=1;align=center;verticalAlign=middle;resizable=0;points=[];autosize=1;strokeColor=none;fillColor=none;fontSize=14;" vertex="1" parent="1">
                    <mxGeometry x="610" y="370" width="50" height="20" as="geometry"/>
                </mxCell>
                <mxCell id="79" value="&lt;font style=&quot;font-size: 12px&quot;&gt;FALSE&lt;/font&gt;" style="text;html=1;align=center;verticalAlign=middle;resizable=0;points=[];autosize=1;strokeColor=none;fillColor=none;fontSize=14;rotation=0;" vertex="1" parent="1">
                    <mxGeometry x="732.5" y="220" width="50" height="20" as="geometry"/>
                </mxCell>
                <mxCell id="90" value="END" style="ellipse;whiteSpace=wrap;html=1;fontSize=14;" vertex="1" parent="1">
                    <mxGeometry x="607.5" y="530" width="120" height="30" as="geometry"/>
                </mxCell>
                <mxCell id="92" value="&lt;font style=&quot;font-size: 12px&quot;&gt;TRUE&lt;/font&gt;" style="text;html=1;align=center;verticalAlign=middle;resizable=0;points=[];autosize=1;strokeColor=none;fillColor=none;fontSize=14;" vertex="1" parent="1">
                    <mxGeometry x="610" y="280" width="50" height="20" as="geometry"/>
                </mxCell>
                <mxCell id="93" value="&lt;font style=&quot;font-size: 12px&quot;&gt;FALSE&lt;/font&gt;" style="text;html=1;align=center;verticalAlign=middle;resizable=0;points=[];autosize=1;strokeColor=none;fillColor=none;fontSize=14;" vertex="1" parent="1">
                    <mxGeometry x="737.5" y="310" width="50" height="20" as="geometry"/>
                </mxCell>
            </root>
        </mxGraphModel>
    </diagram>
</mxfile>